<?xml version="1.0" encoding="UTF-8" standalone="no"?>
<svg width="45px" height="39px" viewBox="0 0 45 39" version="1.1" xmlns="http://www.w3.org/2000/svg" xmlns:xlink="http://www.w3.org/1999/xlink">
    <defs></defs>
    <g id="Welcome" stroke="none" stroke-width="1" fill="none" fill-rule="evenodd">
        <g id="Desktop-HD" transform="translate(-698.000000, -1672.000000)" fill="#D5CEBE">
            <g id="Our-team-quote" transform="translate(-245.000000, 1568.000000)">
                <g id="Group" transform="translate(421.000000, 104.000000)">
                    <g id="ic_airplay_black_24px" transform="translate(522.000000, 0.000000)">
                        <path d="M10.2083333,38.7916667 L34.7083333,38.7916667 L22.4583333,26.5416667 L10.2083333,38.7916667 Z M40.8333333,0 L4.08333333,0 C1.8375,0 0,1.8375 0,4.08333333 L0,28.5833333 C0,30.8291667 1.8375,32.6666667 4.08333333,32.6666667 L12.25,32.6666667 L12.25,28.5833333 L4.08333333,28.5833333 L4.08333333,4.08333333 L40.8333333,4.08333333 L40.8333333,28.5833333 L32.6666667,28.5833333 L32.6666667,32.6666667 L40.8333333,32.6666667 C43.0791667,32.6666667 44.9166667,30.8291667 44.9166667,28.5833333 L44.9166667,4.08333333 C44.9166667,1.8375 43.0791667,0 40.8333333,0 L40.8333333,0 Z" id="Shape"></path>
                    </g>
                </g>
            </g>
        </g>
    </g>
</svg>
