<?xml version="1.0" encoding="UTF-8"?>
<svg width="64px" height="44px" viewBox="0 0 64 44" version="1.1" xmlns="http://www.w3.org/2000/svg" xmlns:xlink="http://www.w3.org/1999/xlink">
    <!-- Generator: Sketch 41.2 (35397) - http://www.bohemiancoding.com/sketch -->
    <title>youtube</title>
    <desc>Created with Sketch.</desc>
    <defs></defs>
    <g id="Page-1" stroke="none" stroke-width="1" fill="none" fill-rule="evenodd">
        <g id="youtube" fill="#CCC0A7">
            <path d="M63.383392,8.81571429 C62.9954421,4.56448889 59.5563813,1.20010365 55.226368,0.835811429 C50.209952,0.426988571 42.774624,0 33.600384,0 C22.552352,0 14.212704,0.4433 8.821088,0.859005714 C4.46957437,1.20234783 1.0037694,4.57651339 0.616,8.84714286 C0.285952,12.2578029 0,16.76224 0,22.1329429 C0,27.3699486 0.283584,31.7947771 0.612096,35.16304 C1.00372308,39.4297545 4.46839402,42.7986987 8.816384,43.1406486 C14.207808,43.5563229 22.549024,44 33.600384,44 C42.774592,44 50.209952,43.5730114 55.226368,43.164 C59.556403,42.7999069 62.9955425,39.4355242 63.383392,35.1842857 C63.713664,31.7915086 64,27.3173686 64,22 C64,16.6826314 63.713664,12.2084914 63.383392,8.81571429 Z M24.883008,31.2361657 L24.883008,12.7638343 L43.4368,22 L24.883008,31.2361657 Z" id="Shape"></path>
        </g>
    </g>
</svg>