<?xml version="1.0" encoding="UTF-8"?>
<svg width="256px" height="256px" viewBox="0 0 256 256" version="1.1" xmlns="http://www.w3.org/2000/svg" xmlns:xlink="http://www.w3.org/1999/xlink">
    <!-- Generator: Sketch 41.2 (35397) - http://www.bohemiancoding.com/sketch -->
    <title>blogger</title>
    <desc>Created with Sketch.</desc>
    <defs></defs>
    <g id="Page-1" stroke="none" stroke-width="1" fill="none" fill-rule="evenodd">
        <g id="blogger" fill="#CCC0A7">
            <path d="M240,96 L224,96 C215.163444,96 208,88.836556 208,80 C208,35.81722 172.18278,0 128,0 L80,0 C35.81722,0 1.42108547e-14,35.81722 0,80 L0,176 C1.42108547e-14,220.18278 35.81722,256 80,256 L176,256 C220.18278,256 256,220.18278 256,176 L256,112 C256,103.163444 248.836556,96 240,96 Z M80,64 L128,64 C136.836556,64 144,71.163444 144,80 C144,88.836556 136.836556,96 128,96 L80,96 C71.163444,96 64,88.836556 64,80 C64,71.163444 71.163444,64 80,64 Z M176,192 L80,192 C71.163444,192 64,184.836556 64,176 C64,167.163444 71.163444,160 80,160 L176,160 C184.836556,160 192,167.163444 192,176 C192,184.836556 184.836556,192 176,192 Z" id="Shape"></path>
        </g>
    </g>
</svg>