<?xml version="1.0" encoding="UTF-8"?>
<svg width="256px" height="256px" viewBox="0 0 256 256" version="1.1" xmlns="http://www.w3.org/2000/svg" xmlns:xlink="http://www.w3.org/1999/xlink">
    <!-- Generator: Sketch 41.2 (35397) - http://www.bohemiancoding.com/sketch -->
    <title>instagram</title>
    <desc>Created with Sketch.</desc>
    <defs></defs>
    <g id="Page-1" stroke="none" stroke-width="1" fill="none" fill-rule="evenodd">
        <g id="instagram" fill="#CCC0A7">
            <path d="M177.777778,0 L78.2222222,0 C35.0212818,0 6.31593543e-15,35.0212818 0,78.2222222 L0,177.777778 C-3.15796771e-14,220.978718 35.0212818,256 78.2222222,256 L177.777778,256 C198.523601,256 218.419729,247.758754 233.089242,233.089242 C247.758754,218.419729 256,198.523601 256,177.777778 L256,78.2222222 C256,35.0212818 220.978718,0 177.777778,0 Z M234.666667,177.777778 C234.631084,209.181893 209.181893,234.631084 177.777778,234.666667 L78.2222222,234.666667 C46.8181073,234.631084 21.3689165,209.181893 21.3333333,177.777778 L21.3333333,78.2222222 C21.3686036,46.8179775 46.8179775,21.3686036 78.2222222,21.3333333 L177.777778,21.3333333 C209.182023,21.3686036 234.631396,46.8179775 234.666667,78.2222222 L234.666667,177.777778 Z" id="Shape"></path>
            <path d="M128,64 C92.653776,64 64,92.653776 64,128 C64,163.346224 92.653776,192 128,192 C163.346224,192 192,163.346224 192,128 C192,92.653776 163.346224,64 128,64 L128,64 Z M128,170.666667 C104.435851,170.666667 85.3333333,151.564149 85.3333333,128 C85.3333333,104.435851 104.435851,85.3333333 128,85.3333333 C151.564149,85.3333333 170.666667,104.435851 170.666667,128 C170.640018,151.553102 151.553102,170.640018 128,170.666667 Z" id="Shape"></path>
            <ellipse id="Oval" cx="194.844587" cy="61.1554133" rx="14.2222222" ry="14.2222222"></ellipse>
        </g>
    </g>
</svg>