<?xml version="1.0" encoding="UTF-8"?>
<svg width="247px" height="256px" viewBox="0 0 247 256" version="1.1" xmlns="http://www.w3.org/2000/svg" xmlns:xlink="http://www.w3.org/1999/xlink">
    <!-- Generator: Sketch 41.2 (35397) - http://www.bohemiancoding.com/sketch -->
    <title>vimeo</title>
    <desc>Created with Sketch.</desc>
    <defs></defs>
    <g id="Page-1" stroke="none" stroke-width="1" fill="none" fill-rule="evenodd">
        <g id="vimeo" transform="translate(-1.000000, 0.000000)" fill="#CCC0A7">
            <path d="M0.96,70.33824 L9.81342316,85.85824 C9.81342316,85.85824 33.5315537,62.17184 40.1678821,80.85184 C62.9336926,144.93344 68.5283705,218.91776 92.86656,245.56144 C119.848286,275.09904 150.624202,236.04928 180.135613,201.70544 C221.313213,153.78544 273.728404,45.00608 233.677474,9.96144 C195.722105,-23.2496 143.457684,34.29232 142.273617,69.73744 C162.850627,53.31712 186.459621,69.83824 173.390282,103.88144 C158.208,143.42896 138.758198,171.78544 132.074577,159.9528 C108.887444,118.90016 117.318737,20.7752 87.5553684,4.75488 C59.0234947,-10.60208 0.96,70.33824 0.96,70.33824 Z" id="Shape"></path>
        </g>
    </g>
</svg>