<?xml version="1.0" encoding="UTF-8"?>
<svg width="256px" height="168px" viewBox="0 0 256 168" version="1.1" xmlns="http://www.w3.org/2000/svg" xmlns:xlink="http://www.w3.org/1999/xlink">
    <!-- Generator: Sketch 41.2 (35397) - http://www.bohemiancoding.com/sketch -->
    <title>youtube</title>
    <desc>Created with Sketch.</desc>
    <defs></defs>
    <g id="Page-1" stroke="none" stroke-width="1" fill="none" fill-rule="evenodd">
        <g id="youtube" fill="#CCC0A7">
            <path d="M253.533568,33.66 C251.981769,17.4280485 238.225525,4.58221393 220.905472,3.19128 C200.839808,1.63032 171.098496,0 134.401536,0 C90.209408,0 56.850816,1.6926 35.284352,3.27984 C17.8782975,4.59078263 4.01507762,17.4739602 2.464,33.78 C1.143808,46.80252 0,64.00128 0,84.5076 C0,104.50344 1.134336,121.39824 2.448384,134.25888 C4.01489231,150.549972 17.8735761,163.413213 35.265536,164.71884 C56.831232,166.30596 90.196096,168 134.401536,168 C171.098368,168 200.839808,166.36968 220.905472,164.808 C238.225612,163.417826 251.98217,150.572002 253.533568,134.34 C254.854656,121.38576 256,104.30268 256,84 C256,63.69732 254.854656,46.61424 253.533568,33.66 Z M99.532032,119.26536 L99.532032,48.73464 L173.7472,84 L99.532032,119.26536 Z" id="Shape"></path>
        </g>
    </g>
</svg>